<mxfile host="app.diagrams.net" modified="2023-01-10T08:37:32.958Z" agent="5.0 (Windows NT 10.0; Win64; x64) AppleWebKit/537.36 (KHTML, like Gecko) Chrome/108.0.0.0 Whale/3.18.154.7 Safari/537.36" version="20.7.4" etag="ZMsOm5Bks-hIW5SGEc_g" type="github">
  <diagram id="gN5y_kFoHaaXB7vlhhxj" name="페이지-1">
    <mxGraphModel dx="1388" dy="1583" grid="1" gridSize="10" guides="1" tooltips="1" connect="1" arrows="1" fold="1" page="1" pageScale="1" pageWidth="1169" pageHeight="827" math="0" shadow="0">
      <root>
        <mxCell id="0" />
        <mxCell id="1" parent="0" />
        <mxCell id="2G9jwyEIwF5hah8SNShY-1" value="" style="shape=image;verticalLabelPosition=bottom;labelBackgroundColor=default;verticalAlign=top;imageAspect=0;image=data:image/png,iVBORw0KGgoAAAANSUhEUgAABdcAAAOyCAMAAACmJRyxAAAAAXNSR0IArs4c6QAAAARnQU1BAACxjwv8YQUAAAAPUExURQAAABKt6hKt6hKt6v///95/4BMAAAADdFJOUwCf3xrDnU4AAAAJcEhZcwAAFxEAABcRAcom8z8AAA3iSURBVHhe7dqBjYMwFAVBg91/zWAERbCakS6+NLCK9N8Y8+H1er3exHt839fyer1eb+EdYwHQsX+uv/8CEKDrAClz6jpAia4DtOg6QIuuA7TYOQK06DpAjJ0jQIuuA6S4mwK06DpAi64DtOg6QIudI0CLrgPE2DkCtOg6QIq7KUCLrgO06DpAi64DtNg5ArToOkCMnSNAi64DpLibArToOkCLrgO06DpAi50jQIuuA8TYOQK06DpAirspQIuuA7ToOkCLrgO02DkCtOg6QIydI0CLrgOkuJsCtOg6QIuuA7ToOkCLnSNAi64DxNg5ArToOkCKuylAi64DtOg6QIuuA7TYOQK06DpAjJ0jQIuuA6S4mwK06DpAi64DtOg6QIudI0CLrgPE2DkCtOg6QIq7KUCLrgO06DpAi64DtNg5ArToOkCMnSNAi64DpLibArToOkCLrgO06DpAi50jQIuuA8TYOQK06DpAirspQIuuA7ToOkCLrgO02DkCtOg6QIydI0CLrgOkuJsCtOg6QIuuA7ToOkCLnSNAi64DxNg5ArToOkCKuylAi64DtOg6QIuuA7TYOQK06DpAjJ0jQIuuA6S4mwK06DpAi64DtOg6QIudI0CLrgPE2DkCtOg6QIq7KUCLrgO06DpAi64DtNg5ArToOkCMnSNAi64DpLibArToOkCLrgO06DpAi50jQIuuA8TYOQK06DpAirspQIuuA7ToOkCLrgO02DkCtOg6QIydI0CLrgOkuJsCtOg6QIuuA7ToOkCLnSNAi64DxNg5ArToOkCKuylAi64DtOg6QIuuA7TYOQK06DpAjJ0jQIuuA6S4mwK06DpAi64DtOg6QIudI0CLrgPE2DkCtOg6QIq7KUCLrgO06DpAi64DtNg5ArToOkCMnSNAi64DpLibArToOkCLrgO06DpAi50jQIuuA8TYOQK06DpAirspQIuuA7ToOkCLrgO02DkCtOg6QIydI0CLrgOkuJsCtOg6QIuuA7ToOkCLnSNAi64DxNg5ArToOkCKuylAi64DtOg6QIuuA7TYOQK06DpAjJ0jQIuuA6S4mwK06DpAi64DtOg6QIudI0CLrgPE2DkCtOg6QIq7KUCLrgO06DpAi64DtNg5ArToOkCMnSNAi64DpLibArToOkCLrgO06DpAi50jQIuuA8TYOQK06DpAirspQIuuA7ToOkCLrgO02DkCtOg6QIydI0CLrgOkuJsCtOg6QIuuA7ToOkCLnSNAi64DxNg5ArToOkCKuylAi64DtOg6QIuuA7TYOQK06DpAjJ0jQIuuA6S4mwK06DpAi64DtOg6QIudI0CLrgPE2DkCtOg6QIq7KUCLrgO06DpAi64DtNg5ArToOkCMnSNAi64DpLibArToOkCLrgO06DpAi50jQIuuA8TYOQK06DpAirspQIuuA7ToOkCLrgO02DkCtOg6QIydI0CLrgOkuJsCtOg6QIuuA7ToOkCLnSNAi64DxNg5ArToOkCKuylAi64DtOg6QIuuA7TYOQK06DpAjJ0jQIuuA6S4mwK06DpAi64DtOg6QIudI0CLrgPE2DkCtOg6QIq7KUCLrgO06DpAi64DtNg5ArToOkCMnSNAi64DpLibArToOkCLrgO06DpAi50jQIuuA8TYOQK06DpAirspQIuuA7ToOkCLrgO02DkCtOg6QIydI0CLrgOkuJsCtOg6QIuuA7ToOkCLnSNAi64DxNg5ArToOkCKuylAi64DtOg6QIuuA7TYOQK06DpAjJ0jQIuuA6S4mwK06DpAi64DtOg6QIudI0CLrgPE2DkCtOg6QIq7KUCLrgO06DpAi64DtNg5ArToOkCMnSNAi64DpLibArToOkCLrgO06DpAi50jQIuuA8TYOQK06DpAirspQIuuA7ToOkCLrgO02DkCtOg6QIydI0CLrgOkuJsCtOg6QIuuA7ToOkCLnSNAi64DxNg5ArToOkCKuylAi64DtOg6QIuuA7TYOQK06DpAjJ0jQIuuA6S4mwK06DpAi64DtOg6QIudI0CLrgPE2DkCtOg6QIq7KUCLrgO06DpAi64DtNg5ArToOkCMnSNAi64DpLibArToOkCLrgO06DpAi50jQIuuA8TYOQK06DpAirspQIuuA7ToOkCLrgO02DkCtOg6QIydI0CLrgOkuJsCtOg6QIuuA7ToOkCLnSNAi64DxNg5ArToOkCKuylAi64DtOg6QIuuA7TYOQK06DpAjJ0jQIuuA6S4mwK06DpAi64DtOg6QIudI0CLrgPE2DkCtOg6QIq7KUCLrgO06DpAi64DtNg5ArToOkCMnSNAi64DpLibArToOkCLrgO06DpAi50jQIuuA8TYOQK06DpAirspQIuuA7ToOkCLrgO02DkCtOg6QIydI0CLrgOkuJsCtOg6QIuuA7ToOkCLnSNAi64DxNg5ArToOkCKuylAi64DtOg6QIuuA7TYOQK06DpAjJ0jQIuuA6S4mwK06DpAi64DtOg6QIudI0CLrgPE2DkCtOg6QIq7KUCLrgO06DpAi64DtNg5ArToOkCMnSNAi64DpLibArToOkCLrgO06DpAi50jQIuuA8TYOQK06DpAirspQIuuA7ToOkCLrgO02DkCtOg6QIydI0CLrgOkuJsCtOg6QIuuA7ToOkCLnSNAi64DxNg5ArToOkCKuylAi64DtOg6QIuuA7TYOQK06DpAjJ0jQIuuA6S4mwK06DpAi64DtOg6QIudI0CLrgPE2DkCtOg6QIq7KUCLrgO06DpAi64DtNg5ArToOkCMnSNAi64DpLibArToOkCLrgO06DpAi50jQIuuA8TYOQK06DpAirspQIuuA7ToOkCLrgO02DkCtOg6QIydI0CLrgOkuJsCtOg6QIuuA7ToOkCLnSNAi64DxNg5ArToOkCKuylAi64DtOg6QIuuA7TYOQK06DpAjJ0jQIuuA6S4mwK06DpAi64DtOg6QIudI0CLrgPE2DkCtOg6QIq7KUCLrgO06DpAi64DtNg5ArToOkCMnSNAi64DpLibArToOkCLrgO06DpAi50jQIuuA8TYOQK06DpAirspQIuuA7ToOkCLrgO02DkCtOg6QIydI0CLrgOkuJsCtOg6QIuuA7ToOkCLnSNAi64DxNg5ArToOkCKuylAi64DtOg6QIuuA7TYOQK06DpAjJ0jQIuuA6S4mwK06DpAi64DtOg6QIudI0CLrgPE2DkCtOg6QIq7KUCLrgO06DpAi64DtNg5ArToOkCMnSNAi64DpLibArToOkCLrgO06DpAi50jQIuuA8TYOQK06DpAirspQIuuA7ToOkCLrgO02DkCtOg6QIydI0CLrgOkuJsCtOg6QIuuA7ToOkCLnSNAi64DxNg5ArToOkCKuylAi64DtOg6QIuuA7TYOQK06DpAjJ0jQIuuA6S4mwK06DpAi64DtOg6QIudI0CLrgPE2DkCtOg6QIq7KUCLrgO06DpAi64DtNg5ArToOkCMnSNAi64DpLibArToOkCLrgO06DpAi50jQIuuA8TYOQK06DpAirspQIuuA7ToOkCLrgO02DkCtOg6QIydI0CLrgOkuJsCtOg6QIuuA7ToOkCLnSNAi64DxNg5ArToOkCKuylAi64DtOg6QIuuA7TYOQK06DpAjJ0jQIuuA6S4mwK06DpAi64DtOg6QIudI0CLrgPE2DkCtOg6QIq7KUCLrgO06DpAi64DtNg5ArToOkCMnSNAi64DpLibArToOkCLrgO06DpAi50jQIuuA8TYOQK06DpAirspQIuuA7ToOkCLrgO02DkCtOg6QIydI0CLrgOkuJsCtOg6QIuuA7ToOkCLnSNAi64DxNg5ArToOkCKuylAi64DtOg6QIuuA7TYOQK06DpAjJ0jQIuuA6S4mwK06DpAi64DtOg6QIudI0CLrgPE2DkCtOg6QIq7KUCLrgO06DpAi64DtNg5ArToOkCMnSNAi64DpLibArToOkCLrgO06DpAi50jQIuuA8TYOQK06DpAirspQIuuA7ToOkCLrgO02DkCtOg6QIydI0CLrgOkuJsCtOg6QIuuA7ToOkCLnSNAi64DxNg5ArToOkCKuylAi64DtOg6QIuuA7TYOQK06DpAjJ0jQIuuA6S4mwK06DpAi64DtOg6QIudI0CLrgPE2DkCtOg6QIq7KUCLrgO06DpAi64DtNg5ArToOkCMnSNAi64DpLibArToOkCLrgO06DpAi50jQIuuA8TYOQK06DpAirspQIuuA7ToOkCLrgO02DkCtOg6QIydI0CLrgOkuJsCtOg6QIuuA7ToOkCLnSNAi64DxNg5ArToOkCKuylAi64DtOg6QIuuA7TYOQK06DpAjJ0jQIuuA6S4mwK06DpAi64DtOg6QIudI0CLrgPE2DkCtOg6QIq7KUCLrgO06DpAi64DtNg5ArToOkCMnSNAi64DpLibArToOkCLrgO06DpAi50jQIuuA8TYOQK06DpAirspQIuuA7ToOkCLrgO02DkCtOg6QIydI0CLrgOkuJsCtOg6QIuuA7ToOkCLnSNAi64DxNg5ArToOkCKuylAi64DtOg6QIuuA7TYOQK06DpAjJ0jQIuuA6S4mwK06DpAi64DtOg6QIudI0CLrgPE2DkCtOg6QIq7KUCLrgO06DpAi64DtNg5ArToOkCMnSNAi64DpLibArToOkCLrgO0PF2/w35/eL1erzfx7sPp/tu8Xq/X+/d3nhdu/SdhuF3aXAAAAABJRU5ErkJggg==;aspect=fixed;movable=1;resizable=1;rotatable=1;deletable=1;editable=1;connectable=1;" vertex="1" parent="1">
          <mxGeometry x="40" y="40" width="1080" height="680" as="geometry" />
        </mxCell>
        <mxCell id="2G9jwyEIwF5hah8SNShY-31" value="terraform apply" style="edgeStyle=orthogonalEdgeStyle;rounded=0;orthogonalLoop=1;jettySize=auto;html=1;exitX=1;exitY=0.5;exitDx=0;exitDy=0;" edge="1" parent="1" source="2G9jwyEIwF5hah8SNShY-2">
          <mxGeometry relative="1" as="geometry">
            <mxPoint x="240" y="392" as="targetPoint" />
          </mxGeometry>
        </mxCell>
        <mxCell id="2G9jwyEIwF5hah8SNShY-2" value="Terraform&#xa;Bastion" style="shape=image;verticalLabelPosition=bottom;labelBackgroundColor=default;verticalAlign=top;aspect=fixed;imageAspect=0;image=data:image/png,iVBORw0KGgoAAAANSUhEUgAAAEsAAABLCAMAAAAPkIrYAAAAAXNSR0IArs4c6QAAAARnQU1BAACxjwv8YQUAAAHjUExURQAAAAAAAFVVVUBAQDMzMysrKyQkJCAgIDk5OTMzMzMzMyAgICsrKyYmJiQkJCMjIyEhIR0dHSYmJiQkJCMjIykpKSgoKCcnJyQkJCIiIiUlJSMjIyEhISAgICUlJR8fHyQkJCMjIyIiIicnJyIiIiEhISAgICAgIB8fHyMjIyYmJiYmJiEhISQkJB8fHyIiIiEhISEhISQkJCAgIB8fHyIiIiIiIiUlJSEhISMjIyIiIiEhISQkJCQkJCQkJCMjIyYmJiIiIiIiIiUlJSQkJCMjIyUlJSQkJCQkJCMjIyMjIyYmJiUlJSQkJCUlJSQkJCMjIyUlJSIiIiQkJCIiIiMjIyIiIiEhISEhISMjIyQkJCIiIiMjIyMjIyIiIiIiIiMjIyIiIiQkJCIiIiEhISMjIyQkJCIiIiMjIyMjIyMjIyMjIyMjIyMjIyIiIiQkJCIiIiIiIiMjIyMjIyMjIyMjIyMjIyIiIiIiIiEhISIiIiIiIiIiIiIiIiIiIiMjIyMjIyIiIiIiIiIiIiMjIyMjIyIiIiEhISIiIiIiIiIiIiIiIiIiIiEhISIiIiIiIiIiIiIiIiIiIiMjIyIiIiMjIyIiIiMjIyIiIiIiIiIiIiMjIyIiIiMjIyQkJCUlJSYmJrWpu2cAAACcdFJOUwABAwQFBgcICQoPEBIUFRYXGhscHR8gISMmKSwvMDAxMTM0NDU2Nzg6Ozw9PkBBQ0VGR0hJSkxMTVBSVFRVVlhYWVpaXV5hY2RlZmZoa25wdXV3d3h9gYKDhYaOkJKUlZidnZ+goKWnqKmtr7e4urq7vcLDxcbH1Nje3t/g4ePk5efo6enq6+zu7/Dx8/T09fb4+fn6+vv7/P3+/mQwfkQAAAAJcEhZcwAAFxEAABcRAcom8z8AAAIMSURBVFhH7djXVxNBFMDhgZCAYKhShKgQaUoTUKqKCgFCLxYsVCkiRUQBFRRIaAFCACnZhV34U83uDAczew7HmcuTyfc05z78XjaZe3aRH7vrz+prIKyWZFJCqHJm2WbnZ1v63kJKCNU5ZAlCPnhNSgjV2KRjYd/N59B9LG2+JCVPyy4JHUUlnJ7bJadXy51Lzuxu/aBbJeTMLnvuv2sFGiMjVOEGPAC0orsH3iv6e2/jAaBl2j+RsSd4AGjdEM9alXgAaMV//DSuGs3CA0ArQKcPUukC8ADQ0vDN1gNyZndnlm6V6Q189Hk/qZY42PqCT3ufw+te9dzRu65tPq4dkW6RNcDD+773tCDo3dFmvsvH3LhIP8d75MwuVfOb8P8fLwJohdxMM6tSwvAA0EoYm/6qmPqSgweAlmnvEvfQ0emJSn6KB4BW1Juud4rOtyY8ALQ0fLN1n5zZZWruiXLDFT7B+fTuEAaa2vk096x5tZQ7WuSmue8l3lcPWbs7NlZW+aysC9TucFcbr/ExPvxFP8dCcmaX4d8dTACtq5YGq6KuNh4PAK3Eb0s21UIxHgBapp2zfwh8dyTN/95SbG+U4gGgFVpa8UjxuDwGDwAtDd9s5ZMzu3T6nhCssQl84irmqZY4/WGEz/Ck6+97tdYOfFdwviKlS/hmtXf+zapg6PMoxMRIFSn5/TOE/gC/F2UpiT5epgAAAABJRU5ErkJggg==;movable=1;resizable=1;rotatable=1;deletable=1;editable=1;connectable=1;" vertex="1" parent="1">
          <mxGeometry x="70" y="369" width="45" height="45" as="geometry" />
        </mxCell>
        <mxCell id="2G9jwyEIwF5hah8SNShY-3" value="" style="shape=image;verticalLabelPosition=bottom;labelBackgroundColor=default;verticalAlign=top;aspect=fixed;imageAspect=0;image=data:image/png,iVBORw0KGgoAAAANSUhEUgAABE4AAAL8CAMAAADJMAD6AAAAAXNSR0IArs4c6QAAAARnQU1BAACxjwv8YQUAAAASUExURQAAABOu6hKt6hKt6qbg9////7ZE8gYAAAADdFJOUwCHn+4ERIcAAAAJcEhZcwAAFxEAABcRAcom8z8AAAsGSURBVHhe7drBcQJBEATBlRD+u6w+wAKunpkPDgsqYjb6/DzmnOvX19fX9/vv7/v7fL4+vr6+vt9+/66sPAHuO+d8/gHccV09n78Adywnjh2gICdARE6AiJwAETkBKnYnQMTuBGjs2JEToODtBIjICRCREyAiJ0BEToCK3QkQsTsBGjt25AQoeDsBInICROQEiMgJEJEToGJ3AkTsToDGjh05AQreToCInAAROQEicgJE5ASo2J0AEbsToLFjR06AgrcTICInQEROgIicABE5ASp2J0DE7gRo7NiRE6Dg7QSIyAkQkRMgIidARE6Ait0JELE7ARo7duQEKHg7ASJyAkTkBIjICRCRE6BidwJE7E6Axo4dOQEK3k6AiJwAETkBInICROQEqNidABG7E6CxY0dOgIK3EyAiJ0BEToCInAAROQEqdidAxO4EaOzYkROg4O0EiMgJEJETICInQEROgIrdCRCxOwEaO3bkBCh4OwEicgJE5ASIyAkQkROgYncCROxOgMaOHTkBCt5OgIicABE5ASJyAkTkBKjYnQARuxOgsWNHToCCtxMgIidARE6AiJwAETkBKnYnQMTuBGjs2JEToODtBIjICRCREyAiJ0BEToCK3QkQsTsBGjt25AQoeDsBInICROQEiMgJEJEToGJ3AkTsToDGjh05AQreToCInAAROQEicgJE5ASo2J0AEbsToLFjR06AgrcTICInQEROgIicABE5ASp2J0DE7gRo7NiRE6Dg7QSIyAkQkRMgIidARE6Ait0JELE7ARo7duQEKHg7ASJyAkTkBIjICRCRE6BidwJE7E6Axo4dOQEK3k6AiJwAETkBInICROQEqNidABG7E6CxY0dOgIK3EyAiJ0BEToCInAAROQEqdidAxO4EaOzYkROg4O0EiMgJEJETICInQEROgIrdCRCxOwEaO3bkBCh4OwEicgJE5ASIyAkQkROgYncCROxOgMaOHTkBCt5OgIicABE5ASJyAkTkBKjYnQARuxOgsWNHToCCtxMgIidARE6AiJwAETkBKnYnQMTuBGjs2JEToODtBIjICRCREyAiJ0BEToCK3QkQsTsBGjt25AQoeDsBInICROQEiMgJEJEToGJ3AkTsToDGjh05AQreToCInAAROQEicgJE5ASo2J0AEbsToLFjR06AgrcTICInQEROgIicABE5ASp2J0DE7gRo7NiRE6Dg7QSIyAkQkRMgIidARE6Ait0JELE7ARo7duQEKHg7ASJyAkTkBIjICRCRE6BidwJE7E6Axo4dOQEK3k6AiJwAETkBInICROQEqNidABG7E6CxY0dOgIK3EyAiJ0BEToCInAAROQEqdidAxO4EaOzYkROg4O0EiMgJEJETICInQEROgIrdCRCxOwEaO3bkBCh4OwEicgJE5ASIyAkQkROgYncCROxOgMaOHTkBCt5OgIicABE5ASJyAkTkBKjYnQARuxOgsWNHToCCtxMgIidARE6AiJwAETkBKnYnQMTuBGjs2JEToODtBIjICRCREyAiJ0BEToCK3QkQsTsBGjt25AQoeDsBInICROQEiMgJEJEToGJ3AkTsToDGjh05AQreToCInAAROQEicgJE5ASo2J0AEbsToLFjR06AgrcTICInQEROgIicABE5ASp2J0DE7gRo7NiRE6Dg7QSIyAkQkRMgIidARE6Ait0JELE7ARo7duQEKHg7ASJyAkTkBIjICRCRE6BidwJE7E6Axo4dOQEK3k6AiJwAETkBInICROQEqNidABG7E6CxY0dOgIK3EyAiJ0BEToCInAAROQEqdidAxO4EaOzYkROg4O0EiMgJEJETICInQEROgIrdCRCxOwEaO3bkBCh4OwEicgJE5ASIyAkQkROgYncCROxOgMaOHTkBCt5OgIicABE5ASJyAkTkBKjYnQARuxOgsWNHToCCtxMgIidARE6AiJwAETkBKnYnQMTuBGjs2JEToODtBIjICRCREyAiJ0BEToCK3QkQsTsBGjt25AQoeDsBInICROQEiMgJEJEToGJ3AkTsToDGjh05AQreToCInAAROQEicgJE5ASo2J0AEbsToLFjR06AgrcTICInQEROgIicABE5ASp2J0DE7gRo7NiRE6Dg7QSIyAkQkRMgIidARE6Ait0JELE7ARo7duQEKHg7ASJyAkTkBIjICRCRE6BidwJE7E6Axo4dOQEK3k6AiJwAETkBInICROQEqNidABG7E6CxY0dOgIK3EyAiJ0BEToCInAAROQEqdidAxO4EaOzYkROg4O0EiMgJEJETICInQEROgIrdCRCxOwEaO3bkBCh4OwEicgJE5ASIyAkQkROgYncCROxOgMaOHTkBCt5OgIicABE5ASJyAkTkBKjYnQARuxOgsWNHToCCtxMgIidARE6AiJwAETkBKnYnQMTuBGjs2JEToODtBIjICRCREyAiJ0BEToCK3QkQsTsBGjt25AQoeDsBInICROQEiMgJEJEToGJ3AkTsToDGjh05AQreToCInAAROQEicgJE5ASo2J0AEbsToLFjR06AgrcTICInQEROgIicABE5ASp2J0DE7gRo7NiRE6Dg7QSIyAkQkRMgIidARE6Ait0JELE7ARo7duQEKHg7ASJyAkTkBIjICRCRE6BidwJE7E6Axo4dOQEK3k6AiJwAETkBInICROQEqNidABG7E6CxY0dOgIK3EyAiJ0BEToCInAAROQEqdidAxO4EaOzYkROg4O0EiMgJEJETICInQEROgIrdCRCxOwEaO3bkBCh4OwEicgJE5ASIyAkQkROgYncCROxOgMaOHTkBCt5OgIicABE5ASJyAkTkBKjYnQARuxOgsWNHToCCtxMgIidARE6AiJwAETkBKnYnQMTuBGjs2JEToODtBIjICRCREyAiJ0BEToCK3QkQsTsBGjt25AQoeDsBInICROQEiMgJEJEToGJ3AkTsToDGjh05AQreToCInAAROQEicgJE5ASo2J0AEbsToLFjR06AgrcTICInQEROgIicABE5ASp2J0DE7gRo7NiRE6Dg7QSIyAkQkRMgIidARE6Ait0JELE7ARo7duQEKHg7ASJyAkTkBIjICRCRE6BidwJE7E6Axo4dOQEK3k6AiJwAETkBInICROQEqNidABG7E6CxY0dOgIK3EyAiJ0BEToCInAAROQEqdidAxO4EaOzYkROg4O0EiMgJEJETICInQEROgIrdCRCxOwEaO3bkBCh4OwEicgJE5ASIyAkQkROgYncCROxOgMaOHTkBCt5OgIicABE5ASJyAkTkBKjYnQARuxOgsWNHToCCtxMgIidARE6AiJwAETkBKnYnQMTuBGjs2JEToODtBIjICRCREyAiJ0BEToCK3QkQsTsBGjt25AQoeDsBInICROQEiMgJEJEToGJ3AkTsToDGjh05AQreToCInAAROQEicgJE5ASo2J0AEbsToLFjR06AgrcTICInQEROgIicABE5ASp2J0DE7gRo7NiRE6Dg7QSIyAkQkRMgIidARE6Ait0JELE7ARo7duQEKHg7ASJyAkTkBIjICRCRE6BidwJE7E6Axo4dOQEK3k6AiJwAETkBInICROQEqNidABG7E6CxY0dOgIK3EyAiJ0BEToCInAAROQEqdidAxO4EaOzYkROg4O0EiMgJEJETICInQEROgIrdCRCxOwEaO3bkBCh4OwEicgJE5ASIyAkQkROgcu1O5gqLr6+v753veffkUxVfX1/fb7+P8w9sVQHL5wD75AAAAABJRU5ErkJggg==;movable=0;resizable=0;rotatable=0;deletable=0;editable=0;connectable=0;" vertex="1" parent="1">
          <mxGeometry x="230" y="78.41" width="870.02" height="603.17" as="geometry" />
        </mxCell>
        <mxCell id="2G9jwyEIwF5hah8SNShY-7" value="" style="shape=image;verticalLabelPosition=bottom;labelBackgroundColor=default;verticalAlign=top;aspect=fixed;imageAspect=0;image=data:image/png,iVBORw0KGgoAAAANSUhEUgAAAHgAAAAuCAMAAADUbS0KAAAAAXNSR0IArs4c6QAAAARnQU1BAACxjwv8YQUAAABsUExURQAAAACAvwCf3wCZ5gyq5wqj4BKn5Q+q6A2s5hKs5w6q5xGq6g+q6BGr6BCt6RCs6BKr6RGr6hKr6RGr6BCs6RGt6BKs6hGs6RGs6RGs6hGs6RGt6hGs6RGt6hKs6hGs6RGt6hKs6RGs6RKt6mUzB4gAAAAjdFJOUwAECAoVGR0hKCs2PEJYXWJ0d4CGjZKdpa+yuMDFzdfh7vT5LzJiSwAAAAlwSFlzAAAXEQAAFxEByibzPwAAAS1JREFUWEftlF1TwjAQRYMIVatUoSJ+Epr//x+9d5N0C/rWfXCcPQ+QpDO53bNJg+M4juP8dRav6XRdBp/LLpGPjTxa7WJKX09LmRA8He7KeD7Y7YH/TUzb0EtwSgcstIglWz4leLXJbDYIZExoWU3P8tdHDrE+oPL18xjVxNNL0WNBdd3DdA7OElC8mFC6dGh/LM4gu7460qIGY35RHN6Qq6LHhOy6iTw3Enwf8Vs7oGgvrJDNOpqmX2Eztl6RXpi65mbwyEMkwcP7rZ65kdwLU9fcDDmsRE1ikQoUvF7G8Coj7jEnajAv7ZnU2gXLqyzFiMHJ2cEi7/Fqt5dpNv2LiTlgs1LeJJiXSsg97ari3tZ1CZwGh5s3xNZvtZxpAhN2rh3HcRzHcf4lIXwD6H4jk31W2MsAAAAASUVORK5CYII=;movable=0;resizable=0;rotatable=0;deletable=0;editable=0;connectable=0;" vertex="1" parent="1">
          <mxGeometry x="40" y="40" width="120" height="46" as="geometry" />
        </mxCell>
        <mxCell id="2G9jwyEIwF5hah8SNShY-9" value="" style="shape=image;verticalLabelPosition=bottom;labelBackgroundColor=default;verticalAlign=top;imageAspect=0;image=data:image/png,iVBORw0KGgoAAAANSUhEUgAAAV8AAAGaCAMAAACfTrC0AAAAAXNSR0IArs4c6QAAAARnQU1BAACxjwv8YQUAAAASUExURROu6hKt6hKt6hKt6hKt6vn9/0YPCn0AAAAEdFJOU4efx9+nhZkZAAAACXBIWXMAABcRAAAXEQHKJvM/AAADiklEQVR4Xu3QsRGAMBDAsIeE/VeG47KCOqty7Zkd52qv9f19ovTX6q/VX6u/Vn+t/lr9tfpr9dfqr9Vfq79Wf63+Wv21+mv11+qv1V+rv1Z/rf5a/bX6a/XX6q/VX6u/Vn+t/lr9tfpr9dfqr9Vfq79Wf63+Wv21+mv11+qv1V+rv1Z/rf5a/bX6a/XX6q/VX6u/Vn+t/lr9tfpr9dfqr9Vfq79Wf63+Wv21+mv11+qv1V+rv1Z/rf5a/bX6a/XX6q/VX6u/Vn+t/lr9tfpr9dfqr9Vfq79Wf63+Wv21+mv11+qv1V+rv1Z/rf5a/bX6a/XX6q/VX6u/Vn+t/lr9tfpr9dfqr9Vfq79Wf63+Wv21+mv11+qv1V+rv1Z/rf5a/bX6a/XX6q/VX6u/Vn+t/lr9tfpr9dfqr9Vfq79Wf63+Wv21+mv11+qv1V+rv1Z/rf5a/bX6a/XX6q/VX6u/Vn+t/lr9tfpr9dfqr9Vfq79Wf63+Wv21+mv11+qv1V+rv1Z/rf5a/bX6a/XX6q/VX6u/Vn+t/lr9tfpr9dfqr9Vfq79Wf63+Wv21+mv11+qv1V+rv1Z/rf5a/bX6a/XX6q/VX6u/Vn+t/lr9tfpr9dfqr9Vfq79Wf63+Wv21+mv11+qv1V+rv1Z/rf5a/bX6a/XX6q/VX6u/Vn+t/lr9tfpr9dfqr9Vfq79Wf63+Wv21+mv11+qv1V+rv1Z/rf5a/bX6a/XX6q/VX6u/Vn+t/lr9tfpr9dfqr9Vfq79Wf63+Wv21+mv11+qv1V+rv1Z/rf5a/bX6a/XX6q/VX6u/Vn+t/lr9tfpr9dfqr9Vfq79Wf63+Wv21+mv11+qv1V+rv1Z/rf5a/bX6a/XX6q/VX6u/Vn+t/lr9tfpr9dfqr9Vfq79Wf63+Wv21+mv11+qv1V+rv1Z/rf5a/bX6a/XX6q/VX6u/Vn+t/lr9tfpr9dfqr9Vfq79Wf63+Wv21+mv11+qv1V+rv1Z/rf5a/bX6a/XX6q/VX6u/Vn+t/lr9tfpr9dfqr9Vfq79Wf63+Wv21+mv11+qv1V+rv1Z/rf5a/bX6a/XX6q/VX6u/Vn+t/lr9tfpr9dfqr9Vfq79Wf63+Wv21+mv11+qv1V+rv1Z/rf5a/bX6a/XX6q/VX6u/Vn+t/lr9tfpr9dfqr9Vfq79Wf63+Wv21+mv11+qv1V+rv1Z/rf9voLlPBNjrBU6b73f75oseAAAAAElFTkSuQmCC;movable=0;resizable=0;rotatable=0;deletable=0;editable=0;connectable=0;" vertex="1" parent="1">
          <mxGeometry x="240" y="120" width="850" height="550" as="geometry" />
        </mxCell>
        <mxCell id="2G9jwyEIwF5hah8SNShY-8" value="" style="shape=image;verticalLabelPosition=bottom;labelBackgroundColor=default;verticalAlign=top;aspect=fixed;imageAspect=0;image=data:image/png,iVBORw0KGgoAAAANSUhEUgAAAHgAAAAuCAMAAADUbS0KAAAAAXNSR0IArs4c6QAAAARnQU1BAACxjwv8YQUAAAByUExURQAAAACAvwCf3wCZ5gyq5wqj4BKn5RCn5w+q6A2s5hKs5w6q5xGq6g+q6BGr6BCt6RCs6BKr6RGr6hKr6RGr6BCs6RGt6BGt6RKs6hGs6RGs6hGs6RGt6hGs6RGt6hGs6RKs6hGs6RGt6hKs6RGs6RKt6hu/2AYAAAAldFJOUwAECAoVGR0gISgrNjxCWF1idHeAho2SmJ2vsrjAxc3S1+Hu9Pm6IPhIAAAACXBIWXMAABcRAAAXEQHKJvM/AAABKUlEQVRYR+2U2XLCMAxFTVnb0gIFSugGhPj/f5F7JdkkHfoUM9MHnQeIFCbHWkhwHMdxnP/O4COeR3bxM1xG8r2QW+NNHePxbShB0FvHysL+4IGv/J7VcR228vQY90jMoSVr3k3iiNNp3BsIqQnz2DxDjPInJ14i36DyyXsWIznY2TELkHq9ZS0i1iag+I5CxDheMbH1+uHEnl7FiHX2iVRxN9sH7fWsZkEifqnxmSaQsRkfniwugNiWsjVpuRZ59Jm0XDxfITg3TJpLJOLmC1XdEFOJbhRba453Dw+XRmdsya5BxfhFwZKhW6nxKkYLbm11WTF6re+MlphJ/o/Hm0rjO7SabbXyWuK8TTbqOywXfSZsi8PjJzy/3tVNNdXQcRzHcRzH+ZMQLveMJ4zJ/6zKAAAAAElFTkSuQmCC;movable=0;resizable=0;rotatable=0;deletable=0;editable=0;connectable=0;" vertex="1" parent="1">
          <mxGeometry x="230" y="78.41" width="120" height="46" as="geometry" />
        </mxCell>
        <mxCell id="2G9jwyEIwF5hah8SNShY-11" value="" style="shape=image;verticalLabelPosition=bottom;labelBackgroundColor=default;verticalAlign=top;aspect=fixed;imageAspect=0;image=data:image/png,iVBORw0KGgoAAAANSUhEUgAAAHgAAAAuCAMAAADUbS0KAAAAAXNSR0IArs4c6QAAAARnQU1BAACxjwv8YQUAAABjUExURQAAAACAvwCf3wCZ5gyq5wqn4hKn5RGq5g+q6BKs5w6q5xGq6hKs6RCr6RGr6BCs6BCr6hGr6hKr6RGs6hGr6BCs6RGt6BGs6RGs6RGs6RGs6hGt6hGs6RGt6hKs6RGs6RKt6jdBoR8AAAAgdFJOUwAECAoVGh0eISs2PEdSWGJtd4CEho2SoqWvss3h7vT5+0aREQAAAAlwSFlzAAAXEQAAFxEByibzPwAAANtJREFUWEftlNkOgkAMRQfFFRU3VBCk//+VdmPMqI80MabnYUIo4XA7HYLjOI7j/D4VPPIQig6OoQSiv660FJlfAHZ6PRosnrS0ihjVa60JGWqtxBXLSlqzPUCtNaHoDxsjcQHYaBVT+vtUahF8wEK8aCVjFKeJESPxTSNKq89fJDZiZBAL1PYUo8Rbdan4xPcR1Ok3GYlnDW8ut5qGekhsLs6XHb9f9rih8/WGlZiajDFlqlHysclmYjxC6IzHKY2M/WBkAkeDxfSvrlWs8V8YiR3HcRzHcf6VEJ5xwxtVyJSXvgAAAABJRU5ErkJggg==;movable=0;resizable=0;rotatable=0;deletable=0;editable=0;connectable=0;" vertex="1" parent="1">
          <mxGeometry x="240" y="120" width="120" height="46" as="geometry" />
        </mxCell>
        <mxCell id="2G9jwyEIwF5hah8SNShY-12" value="" style="shape=image;verticalLabelPosition=bottom;labelBackgroundColor=default;verticalAlign=top;imageAspect=0;image=data:image/png,iVBORw0KGgoAAAANSUhEUgAAAXoAAAGgCAMAAACT21zrAAAAAXNSR0IArs4c6QAAAARnQU1BAACxjwv8YQUAAAASUExURQAAALe3t7m5ubq6urm5ubm5ucJEaagAAAAFdFJOUwBgh5/f/YKlJwAAAAlwSFlzAAAXEQAAFxEByibzPwAAA9VJREFUeF7t1DESgkAQRcFB3PtfWcDcMlBe0p0MVG30gj+PmXVx7737rO3Lp+5P73beoSF94+gufUP6jPQZ3TPSZwxOSfqM9A2Dk5E+I31G94z0GYNTkj4jfcPgZKTPSJ/RPSN9xuCUpM9I3zA4Gekz0md0z0ifMTgl6TPSNwxORvqM9BndM9JnDE5J+oz0DYOTkT4jfUb3jPQZg1OSPiN9w+BkpM9In9E9I33G4JSkz0jfMDgZ6TPSZ3TPSJ8xOCXpM9I3DE5G+oz0Gd0z0mcMTkn6jPQNg5ORPiN9RveM9BmDU5I+I33D4GSkz0if0T0jfcbglKTPSN8wOBnpM9JndM9InzE4Jekz0jcMTkb6jPQZ3TPSZwxOSfqM9A2Dk5E+I31G94z0GYNTkj4jfcPgZKTPSJ/RPSN9xuCUpM9I3zA4Gekz0md0z0ifMTgl6TPSNwxORvqM9BndM9JnDE5J+oz0DYOTkT4jfUb3jPQZg1OSPiN9w+BkpM9In9E9I33G4JSkz0jfMDgZ6TPSZ3TPSJ8xOCXpM9I3DE5G+oz0Gd0z0mcMTkn6jPQNg5ORPiN9RveM9BmDU5I+I33D4GSkz0if0T0jfcbglKTPSN8wOBnpM9JndM9InzE4Jekz0jcMTkb6jPQZ3TPSZwxOSfqM9A2Dk5E+I31G94z0GYNTkj4jfcPgZKTPSJ/RPSN9xuCUpM9I3zA4Gekz0md0z0ifMTgl6TPSNwxORvqM9BndM9JnDE5J+oz0DYOTkT4jfUb3jPQZg1OSPiN9w+BkpM9In9E9I33G4JSkz0jfMDgZ6TPSZ3TPSJ8xOCXpM9I3DE5G+oz0Gd0z0mcMTkn6jPQNg5ORPiN9RveM9BmDU5I+I33D4GSkz0if0T0jfcbglKTPSN8wOBnpM9JndM9InzE4Jekz0jcMTkb6jPQZ3TPSZwxOSfqM9A2Dk5E+I31G94z0GYNTkj4jfcPgZKTPSJ/RPSN9xuCUpM9I3zA4Gekz0md0z0ifMTgl6TPSNwxORvqM9BndM9JnDE5J+oz0DYOTkT4jfUb3jPQZg1OSPiN9w+BkpM9In9E9I33G4JSkz0jfMDgZ6TPSZ3TPSJ8xOCXpM9I3DE5G+oz0Gd0z0mcMTkn6jPQNg5ORPiN9RveM9BmDU5I+I33D4GSkz0if0T0jfcbglKTPSN8wOBnpM9JndM9InzE4Jekz0jcMTkb6jPQZ3TPSZwxOSfqM9A2Dk5E+I31G94z0GYNTkj4jfcPgZKTPSJ/RPSN9xuCUpM9I3zA4GekzV/rD+eXefN8/H5+4/7jr+QKVLy5MwX63mgAAAABJRU5ErkJggg==;movable=0;resizable=0;rotatable=0;deletable=0;editable=0;connectable=0;" vertex="1" parent="1">
          <mxGeometry x="260" y="240" width="250" height="416" as="geometry" />
        </mxCell>
        <mxCell id="2G9jwyEIwF5hah8SNShY-13" value="" style="shape=image;verticalLabelPosition=bottom;labelBackgroundColor=default;verticalAlign=top;imageAspect=0;image=data:image/png,iVBORw0KGgoAAAANSUhEUgAAAXoAAAGgCAMAAACT21zrAAAAAXNSR0IArs4c6QAAAARnQU1BAACxjwv8YQUAAAASUExURQAAALe3t7m5ubq6urm5ubm5ucJEaagAAAAFdFJOUwBgh5/f/YKlJwAAAAlwSFlzAAAXEQAAFxEByibzPwAAA9VJREFUeF7t1DESgkAQRcFB3PtfWcDcMlBe0p0MVG30gj+PmXVx7737rO3Lp+5P73beoSF94+gufUP6jPQZ3TPSZwxOSfqM9A2Dk5E+I31G94z0GYNTkj4jfcPgZKTPSJ/RPSN9xuCUpM9I3zA4Gekz0md0z0ifMTgl6TPSNwxORvqM9BndM9JnDE5J+oz0DYOTkT4jfUb3jPQZg1OSPiN9w+BkpM9In9E9I33G4JSkz0jfMDgZ6TPSZ3TPSJ8xOCXpM9I3DE5G+oz0Gd0z0mcMTkn6jPQNg5ORPiN9RveM9BmDU5I+I33D4GSkz0if0T0jfcbglKTPSN8wOBnpM9JndM9InzE4Jekz0jcMTkb6jPQZ3TPSZwxOSfqM9A2Dk5E+I31G94z0GYNTkj4jfcPgZKTPSJ/RPSN9xuCUpM9I3zA4Gekz0md0z0ifMTgl6TPSNwxORvqM9BndM9JnDE5J+oz0DYOTkT4jfUb3jPQZg1OSPiN9w+BkpM9In9E9I33G4JSkz0jfMDgZ6TPSZ3TPSJ8xOCXpM9I3DE5G+oz0Gd0z0mcMTkn6jPQNg5ORPiN9RveM9BmDU5I+I33D4GSkz0if0T0jfcbglKTPSN8wOBnpM9JndM9InzE4Jekz0jcMTkb6jPQZ3TPSZwxOSfqM9A2Dk5E+I31G94z0GYNTkj4jfcPgZKTPSJ/RPSN9xuCUpM9I3zA4Gekz0md0z0ifMTgl6TPSNwxORvqM9BndM9JnDE5J+oz0DYOTkT4jfUb3jPQZg1OSPiN9w+BkpM9In9E9I33G4JSkz0jfMDgZ6TPSZ3TPSJ8xOCXpM9I3DE5G+oz0Gd0z0mcMTkn6jPQNg5ORPiN9RveM9BmDU5I+I33D4GSkz0if0T0jfcbglKTPSN8wOBnpM9JndM9InzE4Jekz0jcMTkb6jPQZ3TPSZwxOSfqM9A2Dk5E+I31G94z0GYNTkj4jfcPgZKTPSJ/RPSN9xuCUpM9I3zA4Gekz0md0z0ifMTgl6TPSNwxORvqM9BndM9JnDE5J+oz0DYOTkT4jfUb3jPQZg1OSPiN9w+BkpM9In9E9I33G4JSkz0jfMDgZ6TPSZ3TPSJ8xOCXpM9I3DE5G+oz0Gd0z0mcMTkn6jPQNg5ORPiN9RveM9BmDU5I+I33D4GSkz0if0T0jfcbglKTPSN8wOBnpM9JndM9InzE4Jekz0jcMTkb6jPQZ3TPSZwxOSfqM9A2Dk5E+I31G94z0GYNTkj4jfcPgZKTPSJ/RPSN9xuCUpM9I3zA4GekzV/rD+eXefN8/H5+4/7jr+QKVLy5MwX63mgAAAABJRU5ErkJggg==;movable=0;resizable=0;rotatable=0;deletable=0;editable=0;connectable=0;" vertex="1" parent="1">
          <mxGeometry x="540" y="240" width="250" height="416" as="geometry" />
        </mxCell>
        <mxCell id="2G9jwyEIwF5hah8SNShY-14" value="" style="shape=image;verticalLabelPosition=bottom;labelBackgroundColor=default;verticalAlign=top;imageAspect=0;image=data:image/png,iVBORw0KGgoAAAANSUhEUgAAAXoAAAGgCAMAAACT21zrAAAAAXNSR0IArs4c6QAAAARnQU1BAACxjwv8YQUAAAASUExURQAAALe3t7m5ubq6urm5ubm5ucJEaagAAAAFdFJOUwBgh5/f/YKlJwAAAAlwSFlzAAAXEQAAFxEByibzPwAAA9VJREFUeF7t1DESgkAQRcFB3PtfWcDcMlBe0p0MVG30gj+PmXVx7737rO3Lp+5P73beoSF94+gufUP6jPQZ3TPSZwxOSfqM9A2Dk5E+I31G94z0GYNTkj4jfcPgZKTPSJ/RPSN9xuCUpM9I3zA4Gekz0md0z0ifMTgl6TPSNwxORvqM9BndM9JnDE5J+oz0DYOTkT4jfUb3jPQZg1OSPiN9w+BkpM9In9E9I33G4JSkz0jfMDgZ6TPSZ3TPSJ8xOCXpM9I3DE5G+oz0Gd0z0mcMTkn6jPQNg5ORPiN9RveM9BmDU5I+I33D4GSkz0if0T0jfcbglKTPSN8wOBnpM9JndM9InzE4Jekz0jcMTkb6jPQZ3TPSZwxOSfqM9A2Dk5E+I31G94z0GYNTkj4jfcPgZKTPSJ/RPSN9xuCUpM9I3zA4Gekz0md0z0ifMTgl6TPSNwxORvqM9BndM9JnDE5J+oz0DYOTkT4jfUb3jPQZg1OSPiN9w+BkpM9In9E9I33G4JSkz0jfMDgZ6TPSZ3TPSJ8xOCXpM9I3DE5G+oz0Gd0z0mcMTkn6jPQNg5ORPiN9RveM9BmDU5I+I33D4GSkz0if0T0jfcbglKTPSN8wOBnpM9JndM9InzE4Jekz0jcMTkb6jPQZ3TPSZwxOSfqM9A2Dk5E+I31G94z0GYNTkj4jfcPgZKTPSJ/RPSN9xuCUpM9I3zA4Gekz0md0z0ifMTgl6TPSNwxORvqM9BndM9JnDE5J+oz0DYOTkT4jfUb3jPQZg1OSPiN9w+BkpM9In9E9I33G4JSkz0jfMDgZ6TPSZ3TPSJ8xOCXpM9I3DE5G+oz0Gd0z0mcMTkn6jPQNg5ORPiN9RveM9BmDU5I+I33D4GSkz0if0T0jfcbglKTPSN8wOBnpM9JndM9InzE4Jekz0jcMTkb6jPQZ3TPSZwxOSfqM9A2Dk5E+I31G94z0GYNTkj4jfcPgZKTPSJ/RPSN9xuCUpM9I3zA4Gekz0md0z0ifMTgl6TPSNwxORvqM9BndM9JnDE5J+oz0DYOTkT4jfUb3jPQZg1OSPiN9w+BkpM9In9E9I33G4JSkz0jfMDgZ6TPSZ3TPSJ8xOCXpM9I3DE5G+oz0Gd0z0mcMTkn6jPQNg5ORPiN9RveM9BmDU5I+I33D4GSkz0if0T0jfcbglKTPSN8wOBnpM9JndM9InzE4Jekz0jcMTkb6jPQZ3TPSZwxOSfqM9A2Dk5E+I31G94z0GYNTkj4jfcPgZKTPSJ/RPSN9xuCUpM9I3zA4GekzV/rD+eXefN8/H5+4/7jr+QKVLy5MwX63mgAAAABJRU5ErkJggg==;movable=0;resizable=0;rotatable=0;deletable=0;editable=0;connectable=0;" vertex="1" parent="1">
          <mxGeometry x="820" y="240" width="250" height="416" as="geometry" />
        </mxCell>
        <mxCell id="2G9jwyEIwF5hah8SNShY-17" value="" style="shape=image;verticalLabelPosition=bottom;labelBackgroundColor=default;verticalAlign=top;aspect=fixed;imageAspect=0;image=data:image/png,iVBORw0KGgoAAAANSUhEUgAAAKwAAAAtCAMAAAAEA3CXAAAAAXNSR0IArs4c6QAAAARnQU1BAACxjwv8YQUAAACBUExURQAAAAAAACAgIDMzMz09PT09PT4+Pj4+Pjs7Ozw8PD09PTw8PD4+Pj09PTw8PD09PT09PTw8PDw8PD09PTw8PDw8PD4+Pj09PT09PT09PT4+Pj09PT09PT4+Pj09PT09PT09PT09PT09PT09PT4+Pj4+Pj09PT09PT4+Pj09PT4+PgsMWfAAAAAqdFJOUwAECAoVGR0hKy82PEJHTVBYXWJoc3eAho2Snauvsri/wMXMzdLX4e70+eUPbxQAAAAJcEhZcwAAFxEAABcRAcom8z8AAAHRSURBVFhH7ZRtV8IwDIU30YEbCEMdA5EXEWb7/3+gN02AbdAdweEHT54PPem2LLe3aQNFURRFUZSLCd/tplMKw/wwb6SUdxPGllinMmXqYu929uue50f6C2vNrKLt1mJzJ9baucwddbHnnOVVevM8JNbEEl5BTp5Fu+o/6mI5rACzN73gYTKTueNPxJJNI67kRhqelta87J1lEdEUG49nRLewGUfevGzwIZ+Hk8LaVW+/j5XduASfWCYri4U+IM7AWcON7s1jRu5bApltiO0XGGtF5x00hzzlV7k1wyBayDZSz5pX+O3NQ4j1QRkS4yB6p/C3bcCktaIIocfExzn8qViSktEo3ZBHv3eJ1DFjsqUFsYb66VxRaQ43HLtUCJ8ht74jlTwWy+1DZeJWDhjRUNQNJ2KRgqXWD2aD2Bac9YulXjvOuf+qJGfFHvJYrLSBoy2xXANeuaJ8OqT+fkCh6A3HGySfQ9xl7pE/j8VSIn08dQfMyt13DSWx+BFYS1HHqOwYv6e76PAxXVINeSxW7jysQ26xkw36KSWxwaDA3Zlw0cxNpDmkcndp7VaMCQdrlF09UuzNE7EwFXK3KaIgQVRvfUVRFEVRFEVRlH9JEHwDLbdrEmS2FnAAAAAASUVORK5CYII=;" vertex="1" parent="1">
          <mxGeometry x="260" y="240" width="172" height="45" as="geometry" />
        </mxCell>
        <mxCell id="2G9jwyEIwF5hah8SNShY-19" value="" style="shape=image;verticalLabelPosition=bottom;labelBackgroundColor=default;verticalAlign=top;aspect=fixed;imageAspect=0;image=data:image/png,iVBORw0KGgoAAAANSUhEUgAAAKwAAAAtCAMAAAAEA3CXAAAAAXNSR0IArs4c6QAAAARnQU1BAACxjwv8YQUAAACKUExURQAAAAAAACAgIDMzMzc3Nz09PT09PTs7Oz4+Pjg4OD4+Pjs7Ozw8PD09PTw8PD4+Pj09PTw8PD09PT09PTw8PDw8PD09PTw8PDw8PD4+Pj09PT09PT09PTw8PD4+Pj09PT4+Pj09PT09PT09PT09PT09PT09PT4+Pj4+Pj09PT09PT4+Pj09PT4+PlaZeg0AAAAtdFJOUwAECAoOFRkaHSAhKy82PEJHTVBYXWJoc3eAho2SmJ2vsri/wMXMzdLX4e70+VfhV1AAAAAJcEhZcwAAFxEAABcRAcom8z8AAAIcSURBVFhH7ZTbetowEITl0oPbtA4JhhZIcZqQE/G+/+t1ZlcSSoE0uMlNv/0vxEpoR+PV2sFxHMdxHOcoqqXcjmI8mOryFUR2mQpZt3EawrsHefwQ45dx+kukXz3x9kZml2pWpIvzZyrbSP8thiX2uFsB8nezB8SeZ8k61g8vSd2vj5u4PQkfF6s4V97SLKszwQHtQh4/4Zz3toqVblTNbkTuv6c7QAGrxUbk+iQKfNnI3CJzqCOHsyvpkYZwPr7RsEjNYkfxxCxQs6OpPjd92KrAUNJHKUkqDKa9dbzazGaNOefGRPcSpP6D2dMNRqp28TArFy1Xl6vPbBPYiDe35E+NopuA9mz/A5eumVuz3QhpSRaC2F+kDmwDo+Up8e7tGm1Iu7JZVIfXPtXNSour5V+2v0y1p9WQCmXqcLM92wiqLJaJ8xjTrhboWeGa6aNGxvawaoY1reGOWe2uZLZMHWg2VQiqW7PsA9XDVNk1mysL8L1LtnS08KDZ4ZXda5bjTwYNXxI9KurHu/wDbNtjlj2aw9wGymuaZVHUJly0rKaaFfsU9ech1BfcDJo7zrDIVxzeUGM1a29V4VvDnGpiR3LILK8sFlLBmoZd7oNk1mbxwcDabBmTpKd3U6RGseM4ZJbH8TfUVyJ3M40bnAVP9QV+71v+yf3jNY69/sp4vME3t8FeZM91kvXUbJkaxRzHcRzHcRzHcf5bQvgN9yx6VrlePc8AAAAASUVORK5CYII=;" vertex="1" parent="1">
          <mxGeometry x="540" y="240" width="172" height="45" as="geometry" />
        </mxCell>
        <mxCell id="2G9jwyEIwF5hah8SNShY-20" value="" style="shape=image;verticalLabelPosition=bottom;labelBackgroundColor=default;verticalAlign=top;aspect=fixed;imageAspect=0;image=data:image/png,iVBORw0KGgoAAAANSUhEUgAAAKwAAABBCAMAAAB7Nb+2AAAAAXNSR0IArs4c6QAAAARnQU1BAACxjwv8YQUAAACNUExURQAAAAAAACAgIDMzMz09PT09PT4+Pjg4OD4+Pjs7Ozw8PD09PTw8PD4+Pj09PTw8PD09PT09PTw8PDw8PDw8PD09PTw8PDw8PD4+Pj09PT09PT09PTw8PD4+Pj09PT09PT09PT4+Pj09PT09PT09PT09PT09PT09PT4+Pj4+Pj09PT09PT4+Pj09PT4+PqYafE8AAAAudFJOUwAECAoVGR0gISsvNjxCR01QWF1hYmhzd4CGjZKYnaKrr7K4v8DFzM3S1+Hu9PlX40s4AAAACXBIWXMAABcRAAAXEQHKJvM/AAAC00lEQVRoQ+2YbXfaMAyFk7GxMmgHGd2gHStdXyiF+P//vF1dyYmTwllP4RA+6H4IcqJYTxTbschcLpfL5XK5DlR+H5ZmtoVLq57ZJ9A0lEMz90lhp0G0XjTYzhs2NOHOFxaO+e8QJnZa1Bls/xZ5exzDyq+f8cJ/ysmrTSh/1LDZiLCVg8KmzdnVcyh5q/RHK59v0PGAl4t52H6Wqx9SBXuBHkUT6ZOakY1KMotYtQNhG00VHkj7wz2fXnlK7ublI8CiIxj9V/SV3y++ikWM7SC/MVjqhRlKHOSQNMOyB0z434RynPX/DsVAx/J29DLDfkwRFhGQyTrRiLGSsDiJGDVsdZ0OhH3TFBP5xE0QDO1YsnBIWqFIp4NRf/I5xqDMexuhyZi93AhO5aB0rWbynJAOB6gcakcHaAcs+qR2wQKEQc2BdK3mPlhm9jiw1rk0gQizjqgxEtjagXStZnWrgtkwEB0NFh1th4LM4IVaCJRMMHHkMKgdImzarLjh37+T94SZhoWME+xQWIohRYhga43EjbOKsKqGA+laTYWNq95EHoM6JiyWGfz+wcqU9R+wRF0zbrEJ6/G0hi2xSiUOStdqKmx2gbP8svRvgbsuMBEPhXW5XK79shXoDHWJ5bXstLJ6v+yj0Fis/w87so/0aYVP5WqQfZkvrE2dKyw+3LYnUkIe5fD9gQUUzLqqqoopbG3ab+MUQmbLglYTVtWsqmzDgpx2BMsxW/7CS2/BLnuoqrhfTqsqK6Y6GgbcVzFbTVgZs7KDNVP2UUisjBgppjqDRdUPXObwDSxLnAgb96XC2RkscDEGDes9sF1mFsKufges1YYR1oYB1Q3s6EXqI9ZLZEOO4wRDJhNumrGYkqfjYnZaWaUkOVPzyWAp/pUUYZNiSlexky9d+dUTwj5+E1v+hCtGCjtjIy5oClsXU3gyWNWgcLlcLpfL5XK5XC7XDmXZP0vatIxMi0qkAAAAAElFTkSuQmCC;" vertex="1" parent="1">
          <mxGeometry x="820" y="240" width="172" height="65" as="geometry" />
        </mxCell>
        <mxCell id="2G9jwyEIwF5hah8SNShY-27" style="edgeStyle=orthogonalEdgeStyle;rounded=0;orthogonalLoop=1;jettySize=auto;html=1;exitX=0.5;exitY=0;exitDx=0;exitDy=0;" edge="1" parent="1" source="2G9jwyEIwF5hah8SNShY-23" target="2G9jwyEIwF5hah8SNShY-26">
          <mxGeometry relative="1" as="geometry">
            <Array as="points">
              <mxPoint x="385" y="310" />
              <mxPoint x="440" y="310" />
              <mxPoint x="440" y="228" />
              <mxPoint x="529" y="228" />
            </Array>
          </mxGeometry>
        </mxCell>
        <mxCell id="2G9jwyEIwF5hah8SNShY-23" value="Web Server" style="shape=image;verticalLabelPosition=bottom;labelBackgroundColor=default;verticalAlign=top;aspect=fixed;imageAspect=0;image=data:image/png,iVBORw0KGgoAAAANSUhEUgAAAEsAAABLCAMAAAAPkIrYAAAAAXNSR0IArs4c6QAAAARnQU1BAACxjwv8YQUAAAHjUExURQAAAAAAAFVVVUBAQDMzMysrKyQkJCAgIDk5OTMzMzMzMyAgICsrKyYmJiQkJCMjIyEhIR0dHSYmJiQkJCMjIykpKSgoKCcnJyQkJCIiIiUlJSMjIyEhISAgICUlJR8fHyQkJCMjIyIiIicnJyIiIiEhISAgICAgIB8fHyMjIyYmJiYmJiEhISQkJB8fHyIiIiEhISEhISQkJCAgIB8fHyIiIiIiIiUlJSEhISMjIyIiIiEhISQkJCQkJCQkJCMjIyYmJiIiIiIiIiUlJSQkJCMjIyUlJSQkJCQkJCMjIyMjIyYmJiUlJSQkJCUlJSQkJCMjIyUlJSIiIiQkJCIiIiMjIyIiIiEhISEhISMjIyQkJCIiIiMjIyMjIyIiIiIiIiMjIyIiIiQkJCIiIiEhISMjIyQkJCIiIiMjIyMjIyMjIyMjIyMjIyMjIyIiIiQkJCIiIiIiIiMjIyMjIyMjIyMjIyMjIyIiIiIiIiEhISIiIiIiIiIiIiIiIiIiIiMjIyMjIyIiIiIiIiIiIiMjIyMjIyIiIiEhISIiIiIiIiIiIiIiIiIiIiEhISIiIiIiIiIiIiIiIiIiIiMjIyIiIiMjIyIiIiMjIyIiIiIiIiIiIiMjIyIiIiMjIyQkJCUlJSYmJrWpu2cAAACcdFJOUwABAwQFBgcICQoPEBIUFRYXGhscHR8gISMmKSwvMDAxMTM0NDU2Nzg6Ozw9PkBBQ0VGR0hJSkxMTVBSVFRVVlhYWVpaXV5hY2RlZmZoa25wdXV3d3h9gYKDhYaOkJKUlZidnZ+goKWnqKmtr7e4urq7vcLDxcbH1Nje3t/g4ePk5efo6enq6+zu7/Dx8/T09fb4+fn6+vv7/P3+/mQwfkQAAAAJcEhZcwAAFxEAABcRAcom8z8AAAIMSURBVFhH7djXVxNBFMDhgZCAYKhShKgQaUoTUKqKCgFCLxYsVCkiRUQBFRRIaAFCACnZhV34U83uDAczew7HmcuTyfc05z78XjaZe3aRH7vrz+prIKyWZFJCqHJm2WbnZ1v63kJKCNU5ZAlCPnhNSgjV2KRjYd/N59B9LG2+JCVPyy4JHUUlnJ7bJadXy51Lzuxu/aBbJeTMLnvuv2sFGiMjVOEGPAC0orsH3iv6e2/jAaBl2j+RsSd4AGjdEM9alXgAaMV//DSuGs3CA0ArQKcPUukC8ADQ0vDN1gNyZndnlm6V6Q189Hk/qZY42PqCT3ufw+te9dzRu65tPq4dkW6RNcDD+773tCDo3dFmvsvH3LhIP8d75MwuVfOb8P8fLwJohdxMM6tSwvAA0EoYm/6qmPqSgweAlmnvEvfQ0emJSn6KB4BW1Juud4rOtyY8ALQ0fLN1n5zZZWruiXLDFT7B+fTuEAaa2vk096x5tZQ7WuSmue8l3lcPWbs7NlZW+aysC9TucFcbr/ExPvxFP8dCcmaX4d8dTACtq5YGq6KuNh4PAK3Eb0s21UIxHgBapp2zfwh8dyTN/95SbG+U4gGgFVpa8UjxuDwGDwAtDd9s5ZMzu3T6nhCssQl84irmqZY4/WGEz/Ck6+97tdYOfFdwviKlS/hmtXf+zapg6PMoxMRIFSn5/TOE/gC/F2UpiT5epgAAAABJRU5ErkJggg==;movable=1;resizable=1;rotatable=1;deletable=1;editable=1;connectable=1;" vertex="1" parent="1">
          <mxGeometry x="362.5" y="391" width="45" height="45" as="geometry" />
        </mxCell>
        <mxCell id="2G9jwyEIwF5hah8SNShY-29" style="edgeStyle=orthogonalEdgeStyle;rounded=0;orthogonalLoop=1;jettySize=auto;html=1;exitX=0.5;exitY=0;exitDx=0;exitDy=0;entryX=0.5;entryY=1;entryDx=0;entryDy=0;" edge="1" parent="1" source="2G9jwyEIwF5hah8SNShY-24" target="2G9jwyEIwF5hah8SNShY-28">
          <mxGeometry relative="1" as="geometry" />
        </mxCell>
        <mxCell id="2G9jwyEIwF5hah8SNShY-24" value="Was Server" style="shape=image;verticalLabelPosition=bottom;labelBackgroundColor=default;verticalAlign=top;aspect=fixed;imageAspect=0;image=data:image/png,iVBORw0KGgoAAAANSUhEUgAAAEsAAABLCAMAAAAPkIrYAAAAAXNSR0IArs4c6QAAAARnQU1BAACxjwv8YQUAAAHjUExURQAAAAAAAFVVVUBAQDMzMysrKyQkJCAgIDk5OTMzMzMzMyAgICsrKyYmJiQkJCMjIyEhIR0dHSYmJiQkJCMjIykpKSgoKCcnJyQkJCIiIiUlJSMjIyEhISAgICUlJR8fHyQkJCMjIyIiIicnJyIiIiEhISAgICAgIB8fHyMjIyYmJiYmJiEhISQkJB8fHyIiIiEhISEhISQkJCAgIB8fHyIiIiIiIiUlJSEhISMjIyIiIiEhISQkJCQkJCQkJCMjIyYmJiIiIiIiIiUlJSQkJCMjIyUlJSQkJCQkJCMjIyMjIyYmJiUlJSQkJCUlJSQkJCMjIyUlJSIiIiQkJCIiIiMjIyIiIiEhISEhISMjIyQkJCIiIiMjIyMjIyIiIiIiIiMjIyIiIiQkJCIiIiEhISMjIyQkJCIiIiMjIyMjIyMjIyMjIyMjIyMjIyIiIiQkJCIiIiIiIiMjIyMjIyMjIyMjIyMjIyIiIiIiIiEhISIiIiIiIiIiIiIiIiIiIiMjIyMjIyIiIiIiIiIiIiMjIyMjIyIiIiEhISIiIiIiIiIiIiIiIiIiIiEhISIiIiIiIiIiIiIiIiIiIiMjIyIiIiMjIyIiIiMjIyIiIiIiIiIiIiMjIyIiIiMjIyQkJCUlJSYmJrWpu2cAAACcdFJOUwABAwQFBgcICQoPEBIUFRYXGhscHR8gISMmKSwvMDAxMTM0NDU2Nzg6Ozw9PkBBQ0VGR0hJSkxMTVBSVFRVVlhYWVpaXV5hY2RlZmZoa25wdXV3d3h9gYKDhYaOkJKUlZidnZ+goKWnqKmtr7e4urq7vcLDxcbH1Nje3t/g4ePk5efo6enq6+zu7/Dx8/T09fb4+fn6+vv7/P3+/mQwfkQAAAAJcEhZcwAAFxEAABcRAcom8z8AAAIMSURBVFhH7djXVxNBFMDhgZCAYKhShKgQaUoTUKqKCgFCLxYsVCkiRUQBFRRIaAFCACnZhV34U83uDAczew7HmcuTyfc05z78XjaZe3aRH7vrz+prIKyWZFJCqHJm2WbnZ1v63kJKCNU5ZAlCPnhNSgjV2KRjYd/N59B9LG2+JCVPyy4JHUUlnJ7bJadXy51Lzuxu/aBbJeTMLnvuv2sFGiMjVOEGPAC0orsH3iv6e2/jAaBl2j+RsSd4AGjdEM9alXgAaMV//DSuGs3CA0ArQKcPUukC8ADQ0vDN1gNyZndnlm6V6Q189Hk/qZY42PqCT3ufw+te9dzRu65tPq4dkW6RNcDD+773tCDo3dFmvsvH3LhIP8d75MwuVfOb8P8fLwJohdxMM6tSwvAA0EoYm/6qmPqSgweAlmnvEvfQ0emJSn6KB4BW1Juud4rOtyY8ALQ0fLN1n5zZZWruiXLDFT7B+fTuEAaa2vk096x5tZQ7WuSmue8l3lcPWbs7NlZW+aysC9TucFcbr/ExPvxFP8dCcmaX4d8dTACtq5YGq6KuNh4PAK3Eb0s21UIxHgBapp2zfwh8dyTN/95SbG+U4gGgFVpa8UjxuDwGDwAtDd9s5ZMzu3T6nhCssQl84irmqZY4/WGEz/Ck6+97tdYOfFdwviKlS/hmtXf+zapg6PMoxMRIFSn5/TOE/gC/F2UpiT5epgAAAABJRU5ErkJggg==;movable=1;resizable=1;rotatable=1;deletable=1;editable=1;connectable=1;" vertex="1" parent="1">
          <mxGeometry x="642.51" y="391" width="45" height="45" as="geometry" />
        </mxCell>
        <mxCell id="2G9jwyEIwF5hah8SNShY-26" value="" style="shape=image;verticalLabelPosition=bottom;labelBackgroundColor=default;verticalAlign=top;aspect=fixed;imageAspect=0;image=data:image/png,iVBORw0KGgoAAAANSUhEUgAAAIkAAAB9CAMAAACh+bD0AAAAAXNSR0IArs4c6QAAAARnQU1BAACxjwv8YQUAAAC9UExURQAAADBQjzBYlzBVlTBUlzBWljBVlzBUli5UlS5WmC9Vly9VmC9Vly9VmC9Vly9VmDBWmDldnS9VlzJYmTVbmjpenDpenUNmokRmoklrpU9wqVBxqVFxqVl4rVp5rmKAsmSBs2SBtG+KuXeRvnqUwH+YwoSbxI2jyY+kypis0Jqu0Zuv0Z+y06S21qW31qq72a+/3LLC3bXF37rI4bzL48TR58XS6MbS6MjU6cvX68/a7dLd7tTe79fg8drj80A65RUAAAASdFJOUwAQIDBAUGBwgI+fr7/P3+/w/s26nY4AAAAJcEhZcwAAFxEAABcRAcom8z8AAAP7SURBVHhe7Zptd5owFMcLaAERH25bxthmq6XM2c7ZurUr3fj+H2s3cFUQUALBnp2T34vK4cbwN8l9SOiZRCKRSCQSiUQikUgkEokIlI5u2rbdt4yOQrfehY45hB39c7p9cjo2e74z8QPfn7qxGJ1MJ0UxRwBusI6IcDlBKbZG5tOhDQC8ZUgyEtYz1GJQg1PRGYIzz+pgrHGSTGpyGvQRuM/09Cw+rlxqdAq0EXjFQqIoALCoWfuoA/DyM7MBpZzMnfvglI0IA9ftiTxIh/GSHlqMBwNq2i7KEAJ6ZAlhMj+qqrSbAQxwyxdJQgBDvRdHYOibHfqecHBIFvTAUsIk9m9oKcLo4NHzDrDAdBSsV6vl0mei7FacqX9slTDCVB5YYbCDHn1bIBqMD3lwIWuvjcCrw5T652HeghSryuTkWYmXMoDDUa2MpegcoAIcCyYlYIxRqRMhaOBSz9y4YnN0p0o0KQaXiqDEqHR107BgQh3zMxUyKJph04ZiRv3y8wxD6q0+isU0OK7nuQ2U4Epp6j7nOBzOdJE4zXZbwY/fcHpUHBCHZDSj4fQoWGdMROhAHGhQOuESOVIrcuA28eOeQCHRBLrULT8mHK/QqjODgWUYtYK+OgKfehEBq5kQq4Yzm7WqkVJC35+wEwXo844LDsmKOhHIgonhrPiNBlnmEAuHUwpuKMT5TYYQK1seh+7WLwGOgVJ44q2eSXePAA90KYDQ4UlCViaW5JQ8wsUTXVZhrzkWTtUdaADpxCtYCRZOlbdjGjj0pZhYyd9rCH58houvmzB1E0V/764AvvzEi2u4v4PL37s2KeO2+YZ19UHZq1k3ShIetl3/+RBf4A9OjExJAg7hzphTgvmw6vHtXh2/VXLz9uuKdUnD7bOPl2u8kxgzbXbG3OygreqaLVHy6Y11gn+TrvFXs13hN7h8RePlazxJmzYpY17JsrIjq8XrZE8J/vaEiyc0stFPtUkZ80oiqFo4cSqJx6RMSdGYYAlXMc4q2Z3n4dlh5JWkjAVKvMrJZ5DJxAVKAB0V71x8j6KX23jF7ilJGal5Gq9yCWdmTihySmIPvdlOT5GSlHHTPEX1srabWSg5JdEjPga1vtzi58f72H33leyM2+Y7qoc2XCjcJ1kcrDnSsS20it1nzpGNu60OypTnrZQttqLO8DzmKdtUaKt+ZCuaa7/eA6fB4cAh1mPuorodKVjIch6Lau1ICWcw5N2tMykCt8YJ4RRqbNZRSvn7x3qscLtT572y1sOEMdt7S92AlT+GUc0Tt+6AZTF3GswXDZkHPo4H2PXPUfTkXZoYhnqz94NdYygA2zK1d/1PFYlEIpFIJBKJRCKRSCT/EWdn/wDA+LqvQuPUOAAAAABJRU5ErkJggg==;" vertex="1" parent="1">
          <mxGeometry x="460" y="-60" width="137" height="125" as="geometry" />
        </mxCell>
        <mxCell id="2G9jwyEIwF5hah8SNShY-30" style="edgeStyle=orthogonalEdgeStyle;rounded=0;orthogonalLoop=1;jettySize=auto;html=1;exitX=0.5;exitY=0;exitDx=0;exitDy=0;entryX=0.5;entryY=1;entryDx=0;entryDy=0;" edge="1" parent="1" source="2G9jwyEIwF5hah8SNShY-28" target="2G9jwyEIwF5hah8SNShY-26">
          <mxGeometry relative="1" as="geometry">
            <Array as="points">
              <mxPoint x="665" y="280" />
              <mxPoint x="710" y="280" />
              <mxPoint x="710" y="183" />
              <mxPoint x="529" y="183" />
            </Array>
          </mxGeometry>
        </mxCell>
        <mxCell id="2G9jwyEIwF5hah8SNShY-28" value="NAT GW" style="shape=image;verticalLabelPosition=bottom;labelBackgroundColor=default;verticalAlign=top;aspect=fixed;imageAspect=0;image=data:image/png,iVBORw0KGgoAAAANSUhEUgAAAEsAAABLCAYAAAA4TnrqAAAAAXNSR0IArs4c6QAAAARnQU1BAACxjwv8YQUAAAAJcEhZcwAAFxEAABcRAcom8z8AAA6rSURBVHhe7ZwLlF3TGccnog2KRkiZZO7Z+zzunZurSVpDm2IZ1SJFq4s1WF0UC/WqllVSlsWsslCqqkVJu4hHKl71TjxSVEq8Em/iESoqSoREnkgk/f332edmksyduZPEau7M/Nf61jmz39//fPvb3z773KnrRS/WG/RBNkD6etG90nrRFlEUbR+H4dmxtXfFxk7h+nRk7T1KU54v1rORD4IoMeaPEDQdWZDYcHneRsvzYbRc96TNj4LwlSiw58ZxnPPVeh7yYfgtyJAlfSqCRE4liW24MDL2zjAMC756z0GSy8VYy20ZSRAm+Twx9kUs7Qam4fX8/YJLa0uasbcYY7bxzfQMYCnnQcynIiAvEmw4LTHhcXEQNOGjAk053ScmOgaLerENWUvxZRcuX768Zzj+wuBwGEo/V/ZLgX25YO2BdXWtWv1WA+TtB7GvIVn5GUPiIdv67O6NfGBPwVo+9payBOs5tbm5bkOfvTpaWvrmrT2hTJaxixIbtebz+SiOt81ZO8R0JAGLSKFQ2IqWFI7UFphyY5BM8ekQsYvPqohiFH2dsjMR1fk8NmYG1/sjG94TmfDejiRvovtjE57mCastKJbKpqBiqYIxRZ9VEVhHSL0HPFmurtqoRhqjZHlkzB3yhb652gGr3R1SwlvWxDiX69T/BJpyxk6qlqwC4tt3cRtEj0uSpME3Vztg4JejxFKnjLXvJtbu4bMqwkX4NvzQk7WUafgcda9kBR2NL/vryhL+JQ7CK6LAvO1IrWWy8FFHo/AHUiQVe+GwrYd9xWevhlKp9OXIRudm5am7gG3Qka2t7a+eGVg1xztLq2WyklwSJ4GdLEWc8jaUdY0i2Ozvi5SBgpvnbXwCBM2WVbnygZ02hFXOF6kIyt9d82QJLP2/hCS3F0wJs3OQP0Qm2ivKRdtHudz2TLWRCkBR+iMR5YJX7R9NeJJvpkN0C8sSzPDh/bGmSyHqUylUthobLkLJZ9gKPU3afJe2gqgleRNe3NzcvJFvpkN0G7IEbWlEGBvqWSIjs7K2kqVD4kzkz0OHDt3CV+8U3YosYWCptCnO+ngi+keRd7CeRcgyWRPKLoagd5iKD6HsIU1NTV/y1apCtyMrA4oMRKEDkfOQMUkYXkvUfYG18QHbkOeLdQndlqwvAr1kdQFfBFmK+RTiaCawBavXu7XioOKW/L15S0sNbtQzrEOyNig1NAyIg2A7FqOf09aVyHh86WRcxcP083f87SWkHcJOI4981derHawLsqR4EoT7E/Pdh8xlC/VJtgC5FdukoQ2ylP4Wc32fvq4rRNHODQ0NG/tm1n+sJVl98vn88MiEtxPzzSuTk4UyKUFlWSVPr5BmIRdHpVJtvOlYC7I2QNEfE7a8jOLL2pCwDMv6lLxXmX5Ymh2r8wIX2hj7bhyYz7i2JU6vzSc01sJR3pqSRdjyw8TYGU7hFdNsLulXJLlw93hQnGN6fo1pNkC+LAzDrWk7Jr+FfibgvyA0JY2gWlN2EgH4jr75tQdbmA1psImndDRyJoHqWTy1YwthuINWIF+sS1gTsnDiO0LU61LUk6S6E/FBuw0Ngs52D320QkY2OhTCyocsGgNWOr7RGOvLrTH68ET2wbTvZOvzOp18EBkjHzGf+9l0Mp3N9U1Jg2325atGV8nCRw3Wi8lMScawlL+vLRaLXTqrbKlr6Ys+u9LGQ+VtnM4arL3EF+k6Grds3Iyn0Iqpv5U9gWygmbinwlSAuOl5Y85C4X6+eqfoEllYL+V/BkGfqV+uy5LAThgypPNXQZWQD8LvQ9BUp4faDMxbjGNPn1093LRjqlF5nlOmjWPkfl4SmLlKd2k+j/T5dH6Gb6JTdIUsHfpiDf8sb9wD++8icZXytOEv4iLkEmhjoF46NlrbyP0IOW+JywuSUmlgaVPXYIq+9HsUs2OB12EpOtzcWuHIryLyJjqMih+6waW+YRkN30JEd1AUBLvJjLGkgyBnHHllMnk67+HTDvXNdAgUnlAtWYxnP/r4xD+UBVjVuUpvaWnpyxhGUf9pxvQs1wNGjhzZj+tVjP15l5bKc9SbQv0HMILTIbpe9bUQMI5x0tPNksC+BrHDlFcV8g0Ng4ldHlRl/xTxUeb8QhCEvkgZpSgKdEbog0FXnik5VSuQL1IR1ZLFArIphJyjtp1CxswomII7cWI7sxF/X6E2UrG/0Ps00p5qjBNXvhDF7gRJVwntzI9scE4yYMDmaiM05ie07z5DYExzktBU9fLSAYd+MJX+68jS4AJ7JatIxZVGpo2yl6uzlCwzr0Ac5LMrAoJvz8iizjUixWetBJ0nosxtWfvc30OymyqKwiFGX/loCjELzLEpWeHDKbF2IW2Pxu8eyxjHyPJFGGmvUO+7aiMO4ibKveTISgPWsUqvCjR0CZVYHVzlWYprfFZFYM47U/ZjRANZgh94jMFdxHS5sJJQ9k2nvFsgzCtE46PbK0fetXp4KuuCTtr13VZD1mzrD4mHDzf9aWecyCJ9Hv0ep3SFDNS7Se07AyGIVXpVYHDuiTtFAvtQYxgO9VkV4RywCGLAbtC+445EZbLyENBumUzcWFSehQWfeIrvtgOyTEbWh1EQ7aayUVQKZM2OLBvOQc9jlF4o1G8V2+CybMzUeUrpVYHC7tQlHZwdX82JtPwZ9SZqwBLXcSeSlXXlsa50sKuUy8bh2+T6EQ76V77bzsmy4WJ9OsXfF+hTAvSZk1pW+Ky+P/NtDMCq/5T2L5dgp7rGqwGdjlVFP7gXGMAIn1URWqop+6YGjCzDAt5HnmBwj3F9fGVRmkuf68tLZusQBJm8UlljH2HwL1J+scaDNehM8mzfbTWW5Zx6EWefOXmm2fu4lpNG+pgw35AfDHlXZ2SpT9d4NSAQPZMKCz1hC7O53QH6MI1+Sp1sRVmsJ6WtiZ4eK9S3VxKlIUzxyb4PLMDcL9+oY7a2ZXG+29H2AbT9pCsHKcR4N/p+OyULcj8j9JlC3t3InSKFtMPavtOKGtxHLY9kY2Ga3+azOocsCfOdps40LejsSZzgrj57NaDULjwtxTCp4jhjrTA+uyI0eNdHGjqMrfQVTWNj42a0r2M5NzWxtJeysj506GAaKhQIDy4GxfphxFSuwVVA7LgXdbNPrBZC1jk+q3O0tuoVCDv4NKJNCQjDh+m0hWiZcCjZXMs8TyfPU9KHbP+QEirnyhJqKFj0zVUE5aqN4PsStx2pttUP9XTge5QytIlnDI7ItO/geJHF/aN+1fuYcX7PtdIO9FkCuv42NQwsMTBvsymvWL5dyDJ4gpMyErxCrCAyZXM+T/pc3SOz2xLFU3lQ/ss30yG6QBYRvPkGiqehRtrPY6VSwwCy+kDW78ibT3uL84E9ykXwxt5PuSVcZ2arYXtIbLIHs+gNtalxaPWXMfjs6sEU3BtiHk8bWkHIquI64SrT5ynu5Kt3iq6QJR+DBZyd9QkJi7D0szVF0+1XeBaKnlNoCHdwW6AgPIKdxe9JPy1uiBPfzErQnpJ+b25jVR8zjV04sUZAgREM7Gam2ttcXaNtRWnkzcChX6PNqq9WFbpClqA9G3Vezghj4ZlP2vHyW75I1dB7Le9qUh2cLuauqGktDzNGsOJE2sha+zcansLUexF5CZlK2vU8oX3X5OvkrpKlb1exmIOdBaywsAW4hNZCYfV9a3ugj37IN+nvOh5yShTtpPqYH/hi6wam2WwkpYZYa+qb6jfxyWsEyKr6rUOGaAs3HX+Dki60kbLIMqbcRKbl/mxtMDTT31tb3+a65g0VXmj11OLEQqWjsmkZ2bIoiJpJmlsw1lt02bI8hkMGSp9P/TmZ0p60pQSyz0HcpUzRk0KsMDHR4fr6mryxciWUXXFM5uqFb8VBeLxvev3FmpIlyFogQW9O32D6uLenKwhw54ZLmK6fSbgvh0BtZBF+9nH6/RHNde1l3/8Da0OWR99iHG8HWaOxqPdoT4eoq5JSFkei1cd2OvCIztBqSBu18UuQdUCWQ319/SYiDQJG0eYESHkXi8oOVYi/2INaO52peQOhweE+sK76rGC9wLoiK4MI0BsEvTLWr9OKCnviuIlYTF5/G8VqzXUd/FJkfca6Jmu9gk5N9IR4Wtu5U5Nc4yCftUbolmS5d+BsA1hm78NRKiDVr1pZhexL+IP7kjA4ogm/4YtXjW5HVsHEI0UI5MzSipIpp72i7t1KY+x7rEh3JLnc7r5aVehWZKHAgSj0spTJlt+KErotw9SubBm6DVn62AuLmZJZj65Yl7YFV7EX+zXXk5ExioDLFoZghU/Ip/lmOkS3IItB98NHXYPyn0NQRsR4FNqzWAzqm5ubN8Tbb9DYmBsU5sLdIe9WVyYra8wNasM3VxHdgiy9Joak15wiqUVNKgaVrUXfclLmX55UWdcHsYm/47MrgjptXyvXJllsUs+K/GlKbMN5kHGkz6oIlNWhgtujET1/AmFX25zdV7/1YUO7zyqyN75N772fUvnaJksD91YSWfu0TmJ8VkXofTwEvQoBskT31pHra/i0V7gqvY0oTcfndgFS42S1PWTlvpp36ukhq/uO05GVWkxHUm7f3WNpN9aqZd26giwzCR823GdVRPr9lH0qI4vpq6telWiR6FC8ZV1fq2RdhBLZF3azwyDY32dVhE5QsKz5lNcU1EclD+SNOZ2V8VQIP60jSQLbSp/76vDBN1c70OtZlP5PulJBmA3H4ZPaPaAUisXilvi260SuI1hfBeLYfXb3BtNhIKvhPdlUJDL/hCd/WZyLV/sVvj4aSUyocztNKVeeuOsR/V7GF+n+iHMuFJgpwhwJksA+GOX0v2e07JuRhAXHMM3udQQpPy07Q5bpm+k5YGqNggj/XWk6xdw9gqWV79N0d0ryAeSd6Kv3LOiXqYmJTsSKiJcqf2yGVelA4Hm2LydTrWf/W7soCHaKTHgtlqQfkb+Qvsey+t3MC/i2Z7C60dV8HdijMGLEiI1LprSN/mfDcNNodQS+tgetvehFL3pRFerq/gf9dhtfMMzWtAAAAABJRU5ErkJggg==;" vertex="1" parent="1">
          <mxGeometry x="650" y="300" width="30" height="30" as="geometry" />
        </mxCell>
      </root>
    </mxGraphModel>
  </diagram>
</mxfile>
